<svg width="24" height="25" viewBox="0 0 24 25" fill="none" xmlns="http://www.w3.org/2000/svg">
<path d="M20.317 5.00309C18.7873 4.31246 17.147 3.80363 15.4319 3.51221C15.4007 3.50658 15.3695 3.52064 15.3534 3.54875C15.1424 3.91795 14.9087 4.3996 14.7451 4.77818C12.9004 4.50644 11.0652 4.50644 9.25835 4.77818C9.09466 4.39119 8.85247 3.91795 8.64056 3.54875C8.62447 3.52158 8.59327 3.50752 8.56207 3.51221C6.84791 3.8027 5.20756 4.31153 3.67693 5.00309C3.66368 5.00871 3.65233 5.01809 3.64479 5.03026C0.533391 9.6041 -0.31895 14.0655 0.0991801 18.4716C0.101072 18.4932 0.11337 18.5138 0.130398 18.5269C2.18321 20.0103 4.17171 20.9108 6.12328 21.5077C6.15451 21.5171 6.1876 21.5058 6.20748 21.4806C6.66913 20.8602 7.08064 20.2062 7.43351 19.5183C7.45433 19.478 7.43442 19.4303 7.39186 19.4143C6.73913 19.1706 6.1176 18.8736 5.51973 18.5363C5.47244 18.5091 5.46865 18.4425 5.51216 18.4107C5.63797 18.3179 5.76382 18.2214 5.88395 18.124C5.90569 18.1062 5.93598 18.1024 5.96153 18.1136C9.88927 19.8781 14.1416 19.8781 18.0229 18.1136C18.0485 18.1014 18.0788 18.1052 18.1015 18.123C18.2216 18.2204 18.3474 18.3179 18.4742 18.4107C18.5177 18.4425 18.5149 18.5091 18.4676 18.5363C17.8697 18.8802 17.2482 19.1706 16.5945 19.4134C16.552 19.4293 16.533 19.478 16.5539 19.5183C16.9143 20.2052 17.3257 20.8592 17.7789 21.4796C17.7978 21.5058 17.8319 21.5171 17.8631 21.5077C19.8241 20.9108 21.8126 20.0103 23.8655 18.5269C23.8834 18.5138 23.8948 18.4941 23.8967 18.4725C24.3971 13.3786 23.0585 8.95378 20.3482 5.0312C20.3416 5.01809 20.3303 5.00871 20.317 5.00309ZM8.02002 15.7888C6.8375 15.7888 5.86313 14.7205 5.86313 13.4086C5.86313 12.0967 6.8186 11.0285 8.02002 11.0285C9.23089 11.0285 10.1958 12.1061 10.1768 13.4086C10.1768 14.7205 9.22144 15.7888 8.02002 15.7888ZM15.9947 15.7888C14.8122 15.7888 13.8379 14.7205 13.8379 13.4086C13.8379 12.0967 14.7933 11.0285 15.9947 11.0285C17.2056 11.0285 18.1705 12.1061 18.1516 13.4086C18.1516 14.7205 17.2056 15.7888 15.9947 15.7888Z" fill="white"/>
</svg>
